name C:\Users\u0101727\Documents\MyRepositories\predictivesimulations\OpenSimModel\subject1\GRF\gait_63_test.mot
datacolumns 19
datarows 27
range 1.30100000 1.32700000
endheader

                time	     ground_force_vx	     ground_force_vy	     ground_force_vz	     ground_force_px	     ground_force_py	     ground_force_pz	   1_ground_force_vx	   1_ground_force_vy	   1_ground_force_vz	   1_ground_force_px	   1_ground_force_py	   1_ground_force_pz	     ground_torque_x	     ground_torque_y	     ground_torque_z	   1_ground_torque_x	   1_ground_torque_y	   1_ground_torque_z	
          1.30100000	          0.00000000	          0.00000000	          0.00000000	          0.00000000	          0.00000000	          0.00000000	         66.72221383	        643.41096391	         -4.87034921	         -0.18449214	          0.00000000	          0.25184324	          0.00000000	          0.00000000	          0.00000000	          0.00000000	          3.34671456	          0.00000000	
          1.30200000	          0.00000000	          0.00000000	          0.00000000	          0.00000000	          0.00000000	          0.00000000	         67.62946761	        644.21232319	         -4.92675910	         -0.18438378	          0.00000000	          0.25179379	          0.00000000	          0.00000000	          0.00000000	          0.00000000	          3.36053915	          0.00000000	
          1.30300000	          0.00000000	          0.00000000	          0.00000000	          0.00000000	          0.00000000	          0.00000000	         68.53153769	        644.97334804	         -4.98218441	         -0.18427431	          0.00000000	          0.25174381	          0.00000000	          0.00000000	          0.00000000	          0.00000000	          3.37400495	          0.00000000	
          1.30400000	          0.00000000	          0.00000000	          0.00000000	          0.00000000	          0.00000000	          0.00000000	         69.42819775	        645.69407740	         -5.03643362	         -0.18416369	          0.00000000	          0.25169324	          0.00000000	          0.00000000	          0.00000000	          0.00000000	          3.38710966	          0.00000000	
          1.30500000	          0.00000000	          0.00000000	          0.00000000	          0.00000000	          0.00000000	          0.00000000	         70.31923370	        646.37456871	         -5.08932114	         -0.18405192	          0.00000000	          0.25164206	          0.00000000	          0.00000000	          0.00000000	          0.00000000	          3.39985103	          0.00000000	
          1.30600000	          0.00000000	          0.00000000	          0.00000000	          0.00000000	          0.00000000	          0.00000000	         71.20444437	        647.01489705	         -5.14066810	         -0.18393898	          0.00000000	          0.25159025	          0.00000000	          0.00000000	          0.00000000	          0.00000000	          3.41222679	          0.00000000	
          1.30700000	          0.00000000	          0.00000000	          0.00000000	          0.00000000	          0.00000000	          0.00000000	         72.08364212	        647.61515431	         -5.19030324	         -0.18382485	          0.00000000	          0.25153778	          0.00000000	          0.00000000	          0.00000000	          0.00000000	          3.42423460	          0.00000000	
          1.30800000	          0.00000000	          0.00000000	          0.00000000	          0.00000000	          0.00000000	          0.00000000	         72.95665347	        648.17544839	         -5.23806362	         -0.18370953	          0.00000000	          0.25148462	          0.00000000	          0.00000000	          0.00000000	          0.00000000	          3.43587196	          0.00000000	
          1.30900000	          0.00000000	          0.00000000	          0.00000000	          0.00000000	          0.00000000	          0.00000000	         73.82331967	        648.69590224	         -5.28379530	         -0.18359300	          0.00000000	          0.25143074	          0.00000000	          0.00000000	          0.00000000	          0.00000000	          3.44713618	          0.00000000	
          1.31000000	          0.00000000	          0.00000000	          0.00000000	          0.00000000	          0.00000000	          0.00000000	         74.68349726	        649.17665293	         -5.32735397	         -0.18347525	          0.00000000	          0.25137613	          0.00000000	          0.00000000	          0.00000000	          0.00000000	          3.45802431	          0.00000000	
          1.31100000	          0.00000000	          0.00000000	          0.00000000	          0.00000000	          0.00000000	          0.00000000	         75.53705852	        649.61785073	         -5.36860549	         -0.18335626	          0.00000000	          0.25132077	          0.00000000	          0.00000000	          0.00000000	          0.00000000	          3.46853312	          0.00000000	
          1.31200000	          0.00000000	          0.00000000	          0.00000000	          0.00000000	          0.00000000	          0.00000000	         76.38389198	        650.01965798	         -5.40742633	         -0.18323604	          0.00000000	          0.25126463	          0.00000000	          0.00000000	          0.00000000	          0.00000000	          3.47865899	          0.00000000	
          1.31300000	          0.00000000	          0.00000000	          0.00000000	          0.00000000	          0.00000000	          0.00000000	         77.22390275	        650.38224813	         -5.44370396	         -0.18311457	          0.00000000	          0.25120770	          0.00000000	          0.00000000	          0.00000000	          0.00000000	          3.48839793	          0.00000000	
          1.31400000	          0.00000000	          0.00000000	          0.00000000	          0.00000000	          0.00000000	          0.00000000	         78.05701282	        650.70580456	         -5.47733714	         -0.18299184	          0.00000000	          0.25114997	          0.00000000	          0.00000000	          0.00000000	          0.00000000	          3.49774551	          0.00000000	
          1.31500000	          0.00000000	          0.00000000	          0.00000000	          0.00000000	          0.00000000	          0.00000000	         78.88316139	        650.99051949	         -5.50823620	         -0.18286785	          0.00000000	          0.25109142	          0.00000000	          0.00000000	          0.00000000	          0.00000000	          3.50669682	          0.00000000	
          1.31600000	          0.00000000	          0.00000000	          0.00000000	          0.00000000	          0.00000000	          0.00000000	         79.70230498	        651.23659290	         -5.53632318	         -0.18274260	          0.00000000	          0.25103204	          0.00000000	          0.00000000	          0.00000000	          0.00000000	          3.51524641	          0.00000000	
          1.31700000	          0.00000000	          0.00000000	          0.00000000	          0.00000000	          0.00000000	          0.00000000	         80.51441757	        651.44423139	         -5.56153191	         -0.18261609	          0.00000000	          0.25097183	          0.00000000	          0.00000000	          0.00000000	          0.00000000	          3.52338834	          0.00000000	
          1.31800000	          0.00000000	          0.00000000	          0.00000000	          0.00000000	          0.00000000	          0.00000000	         81.31949062	        651.61364713	         -5.58380804	         -0.18248830	          0.00000000	          0.25091079	          0.00000000	          0.00000000	          0.00000000	          0.00000000	          3.53111608	          0.00000000	
          1.31900000	          0.00000000	          0.00000000	          0.00000000	          0.00000000	          0.00000000	          0.00000000	         82.11753300	        651.74505677	         -5.60310895	         -0.18235925	          0.00000000	          0.25084890	          0.00000000	          0.00000000	          0.00000000	          0.00000000	          3.53842257	          0.00000000	
          1.32000000	          0.00000000	          0.00000000	          0.00000000	          0.00000000	          0.00000000	          0.00000000	         82.90857083	        651.83868037	         -5.61940356	         -0.18222893	          0.00000000	          0.25078617	          0.00000000	          0.00000000	          0.00000000	          0.00000000	          3.54530021	          0.00000000	
          1.32100000	          0.00000000	          0.00000000	          0.00000000	          0.00000000	          0.00000000	          0.00000000	         83.69264731	        651.89474020	         -5.63267215	         -0.18209735	          0.00000000	          0.25072260	          0.00000000	          0.00000000	          0.00000000	          0.00000000	          3.55174086	          0.00000000	
          1.32200000	          0.00000000	          0.00000000	          0.00000000	          0.00000000	          0.00000000	          0.00000000	         84.46982242	        651.91345953	         -5.64290600	         -0.18196452	          0.00000000	          0.25065820	          0.00000000	          0.00000000	          0.00000000	          0.00000000	          3.55773589	          0.00000000	
          1.32300000	          0.00000000	          0.00000000	          0.00000000	          0.00000000	          0.00000000	          0.00000000	         85.24017264	        651.89506122	         -5.65010701	         -0.18183043	          0.00000000	          0.25059297	          0.00000000	          0.00000000	          0.00000000	          0.00000000	          3.56327617	          0.00000000	
          1.32400000	          0.00000000	          0.00000000	          0.00000000	          0.00000000	          0.00000000	          0.00000000	         86.00379061	        651.83976628	         -5.65428728	         -0.18169510	          0.00000000	          0.25052692	          0.00000000	          0.00000000	          0.00000000	          0.00000000	          3.56835214	          0.00000000	
          1.32500000	          0.00000000	          0.00000000	          0.00000000	          0.00000000	          0.00000000	          0.00000000	         86.76078471	        651.74779236	         -5.65546855	         -0.18155853	          0.00000000	          0.25046008	          0.00000000	          0.00000000	          0.00000000	          0.00000000	          3.57295379	          0.00000000	
          1.32600000	          0.00000000	          0.00000000	          0.00000000	          0.00000000	          0.00000000	          0.00000000	         87.51127863	        651.61935231	         -5.65368168	         -0.18142075	          0.00000000	          0.25039245	          0.00000000	          0.00000000	          0.00000000	          0.00000000	          3.57707073	          0.00000000	
          1.32700000	          0.00000000	          0.00000000	          0.00000000	          0.00000000	          0.00000000	          0.00000000	         88.25541075	        651.45465273	         -5.64896605	         -0.18128175	          0.00000000	          0.25032404	          0.00000000	          0.00000000	          0.00000000	          0.00000000	          3.58069217	          0.00000000	
